<svg width="61" height="26" viewBox="0 0 61 26" fill="none" xmlns="http://www.w3.org/2000/svg">
<path fill-rule="evenodd" clip-rule="evenodd" d="M11.2249 4.00186C10.5161 4.8473 9.3819 5.51412 8.24773 5.41886C8.10596 4.27573 8.66123 3.06116 9.31102 2.31098C10.0199 1.44173 11.2604 0.822533 12.2646 0.774902C12.3827 1.96566 11.922 3.1326 11.2249 4.00186ZM12.2529 5.64508C11.2537 5.58712 10.342 5.94795 9.60559 6.2394C9.13169 6.42695 8.73038 6.58578 8.42507 6.58578C8.08245 6.58578 7.66458 6.41846 7.1954 6.2306C6.58063 5.98444 5.87777 5.70302 5.14071 5.71653C3.45127 5.74034 1.87997 6.70485 1.01753 8.24093C-0.754614 11.3131 0.556769 15.8618 2.26984 18.3624C3.10865 19.6008 4.11286 20.9582 5.43606 20.9106C6.01819 20.8885 6.43694 20.7094 6.8703 20.524C7.36923 20.3106 7.88752 20.089 8.6968 20.089C9.47802 20.089 9.97365 20.3049 10.4494 20.5121C10.9018 20.7092 11.3362 20.8984 11.9812 20.8868C13.3516 20.863 14.2141 19.6484 15.0529 18.41C15.9581 17.0809 16.3559 15.7837 16.4163 15.5869L16.4233 15.5641C16.4219 15.5626 16.4108 15.5575 16.3912 15.5485L16.3912 15.5485L16.391 15.5484L16.391 15.5484C16.0884 15.4087 13.7755 14.3415 13.7533 11.4798C13.731 9.07777 15.5878 7.86075 15.8801 7.66917C15.8979 7.65751 15.9099 7.64965 15.9153 7.64555C14.7339 5.88323 12.8909 5.69271 12.2529 5.64508ZM21.7396 20.7558V2.19186H28.651C32.2189 2.19186 34.7117 4.66864 34.7117 8.28855C34.7117 11.9085 32.1716 14.409 28.5565 14.409H24.5987V20.7558H21.7396ZM24.5988 4.62104H27.895C30.376 4.62104 31.7937 5.95469 31.7937 8.30048C31.7937 10.6463 30.376 11.9918 27.8832 11.9918H24.5988V4.62104ZM44.1514 18.5291C43.3953 19.9819 41.7295 20.8987 39.9337 20.8987C37.2755 20.8987 35.4207 19.3031 35.4207 16.8978C35.4207 14.5163 37.2164 13.1469 40.5363 12.9445L44.1042 12.7301V11.7061C44.1042 10.1938 43.1236 9.3722 41.3751 9.3722C39.9337 9.3722 38.8823 10.1224 38.6696 11.2655H36.0941C36.1768 8.86018 38.4215 7.10976 41.4578 7.10976C44.7303 7.10976 46.8569 8.83636 46.8569 11.5156V20.7559H44.2105V18.5291H44.1514ZM40.7016 18.6958C39.1776 18.6958 38.2088 17.9576 38.2088 16.8264C38.2088 15.6594 39.1421 14.9807 40.9261 14.8735L44.1041 14.6711V15.7189C44.1041 17.4575 42.6392 18.6958 40.7016 18.6958ZM55.6348 21.4822C54.4889 24.733 53.1775 25.8047 50.3893 25.8047C50.1767 25.8047 49.4678 25.7809 49.3024 25.7332V23.5065C49.4796 23.5303 49.9167 23.5542 50.1412 23.5542C51.4053 23.5542 52.1142 23.0183 52.5513 21.6251L52.8112 20.8035L47.9674 7.2884H50.9564L54.3235 18.2553H54.3825L57.7496 7.2884H60.6559L55.6348 21.4822Z" fill="black"/>
</svg>
