<svg width="68" height="29" viewBox="0 0 68 29" fill="none" xmlns="http://www.w3.org/2000/svg">
<path fill-rule="evenodd" clip-rule="evenodd" d="M36.5082 3.95371L31.8222 4.97881V1.10621L36.5082 0.100098V3.95371ZM46.254 6.09866C44.4244 6.09866 43.2482 6.97189 42.5948 7.57936L42.3521 6.40239H38.2448V28.537L42.9122 27.5308L42.9308 22.1586C43.603 22.6521 44.5924 23.3545 46.2353 23.3545C49.5772 23.3545 52.6203 20.6209 52.6203 14.6032C52.6016 9.09803 49.5212 6.09866 46.254 6.09866ZM45.1334 19.1785C44.0319 19.1785 43.3784 18.7798 42.9304 18.2863L42.9117 11.2434C43.3971 10.6929 44.0692 10.3133 45.1334 10.3133C46.8323 10.3133 48.0084 12.2496 48.0084 14.7364C48.0084 17.2801 46.8509 19.1785 45.1334 19.1785ZM67.3318 14.793C67.3318 9.93329 65.0168 6.09866 60.5921 6.09866C56.1488 6.09866 53.4604 9.93329 53.4604 14.7551C53.4604 20.469 56.6342 23.3545 61.1895 23.3545C63.4112 23.3545 65.0914 22.842 66.361 22.1206V18.3239C65.0914 18.9694 63.6352 19.368 61.7869 19.368C59.976 19.368 58.3704 18.7226 58.1651 16.4825H67.2944C67.2944 16.3781 67.3011 16.1411 67.3088 15.8679L67.3089 15.8664C67.3194 15.4943 67.3318 15.0555 67.3318 14.793ZM58.1093 12.9898C58.1093 10.8447 59.3975 9.95248 60.5736 9.95248C61.7125 9.95248 62.926 10.8447 62.926 12.9898H58.1093ZM31.8222 6.42145H36.5082V23.0319H31.8222V6.42145ZM26.5017 6.42147L26.8004 7.82623C27.9019 5.77603 30.0863 6.19367 30.6837 6.42147V10.7876C30.1049 10.5788 28.238 10.313 27.1365 11.7748V23.0319H22.4691V6.42147H26.5017ZM17.4662 2.30229L12.9108 3.28942L12.8922 18.4951C12.8922 21.3046 14.9645 23.3738 17.7275 23.3738C19.2584 23.3738 20.3786 23.089 20.9947 22.7473V18.8937C20.3973 19.1405 17.4475 20.0137 17.4475 17.2042V10.4651H20.9947V6.42167H17.4475L17.4662 2.30229ZM6.43234 10.218C5.44286 10.218 4.84544 10.5028 4.84544 11.2431C4.84544 12.0515 5.87362 12.4071 7.14918 12.8482C9.22865 13.5674 11.9656 14.5139 11.9772 18.0202C11.9772 21.4182 9.30744 23.3735 5.42419 23.3735C3.81862 23.3735 2.06369 23.0508 0.327434 22.2914V17.7734C1.89567 18.6466 3.87463 19.2921 5.42419 19.2921C6.46968 19.2921 7.21646 19.0073 7.21646 18.1341C7.21646 17.2387 6.1019 16.8294 4.75632 16.3353C2.7071 15.5829 0.12207 14.6336 0.12207 11.4709C0.12207 8.11089 2.64245 6.09866 6.43234 6.09866C7.98191 6.09866 9.5128 6.34544 11.0624 6.97189V11.433C9.64349 10.6547 7.85122 10.218 6.43234 10.218Z" fill="#6772E5"/>
</svg>
