<svg width="67" height="27" viewBox="0 0 67 27" fill="none" xmlns="http://www.w3.org/2000/svg">
<path fill-rule="evenodd" clip-rule="evenodd" d="M31.7765 20.3981V12.842V12.8405H35.8257C37.4951 12.8415 38.8981 12.3119 40.0347 11.2518C41.1834 10.2457 41.8255 8.79918 41.7929 7.29138C41.8156 5.79197 41.1746 4.35613 40.0347 3.35327C38.9081 2.28738 37.3928 1.70581 35.8257 1.73783H29.3257V20.3981H31.7765ZM31.7765 10.549V4.03514V4.03365H35.8866C36.8026 4.00846 37.6857 4.36901 38.3115 5.02376C38.9412 5.62254 39.2965 6.445 39.2965 7.30399C39.2965 8.16298 38.9412 8.98544 38.3115 9.58422C37.678 10.2252 36.7977 10.5754 35.8866 10.549H31.7765Z" fill="#5F6368"/>
<path fill-rule="evenodd" clip-rule="evenodd" d="M51.7304 8.63427C50.6821 7.68733 49.2522 7.21387 47.4407 7.21387C45.1137 7.21387 43.3566 8.04765 42.1692 9.7152L44.3277 11.0448C45.1254 9.91521 46.2087 9.35042 47.5777 9.35042C48.4506 9.34043 49.2952 9.65249 49.9433 10.2244C50.5895 10.7469 50.9612 11.526 50.9556 12.3461V12.894C50.0138 12.3729 48.8153 12.1123 47.3601 12.1123C45.6551 12.1143 44.2922 12.5054 43.2713 13.2856C42.2504 14.0657 41.7399 15.1164 41.7399 16.4375C41.7177 17.6405 42.2512 18.7892 43.1921 19.5642C44.1603 20.398 45.3634 20.8149 46.8014 20.8149C48.486 20.8149 49.8357 20.0853 50.8506 18.6262H50.9571V20.398H53.3014V12.5292C53.3024 10.8795 52.7787 9.5812 51.7304 8.63427ZM45.0827 18.053C44.5693 17.6911 44.2665 17.1087 44.2698 16.4897C44.2698 15.7944 44.6032 15.2152 45.2745 14.7388C45.9392 14.2693 46.7694 14.0345 47.7649 14.0345C49.1319 14.0345 50.1975 14.3323 50.9616 14.9279C50.9616 15.9343 50.5557 16.8113 49.7438 17.5587C49.0126 18.274 48.0213 18.6767 46.9871 18.6784C46.2975 18.691 45.6248 18.4701 45.0827 18.053Z" fill="#5F6368"/>
<path fill-rule="evenodd" clip-rule="evenodd" d="M66.758 7.63086L58.5744 26.0261H56.0445L59.0813 19.5896L53.7002 7.63086H56.3641L60.2535 16.8024H60.3067L64.0895 7.63086L66.758 7.63086Z" fill="#5F6368"/>
<path fill-rule="evenodd" clip-rule="evenodd" d="M21.8729 11.2129C21.8739 10.4824 21.8107 9.75316 21.6842 9.0332H11.3481V13.1619H17.2682C17.0234 14.4944 16.2326 15.6712 15.0792 16.4196V19.0996H18.6123C20.681 17.234 21.8729 14.4751 21.8729 11.2129Z" fill="#4285F4"/>
<path fill-rule="evenodd" clip-rule="evenodd" d="M11.3478 21.6888C14.3055 21.6888 16.7959 20.7389 18.6119 19.1011L15.0788 16.4211C14.0954 17.0733 12.8289 17.4455 11.3478 17.4455C8.489 17.4455 6.06254 15.5606 5.19486 13.0205H1.55518V15.7824C3.41559 19.4033 7.20457 21.6886 11.3478 21.6888Z" fill="#34A853"/>
<path fill-rule="evenodd" clip-rule="evenodd" d="M5.19494 13.0205C4.73622 11.6895 4.73622 10.2482 5.19494 8.91716V6.15527H1.55525C-0.000837356 9.18386 -0.000837356 12.7538 1.55525 15.7824L5.19494 13.0205Z" fill="#FBBC04"/>
<path fill-rule="evenodd" clip-rule="evenodd" d="M11.3478 4.49233C12.9108 4.46735 14.4211 5.04497 15.5522 6.10033L18.6804 3.04066C16.6968 1.21837 14.069 0.217908 11.3478 0.248994C7.20457 0.249179 3.41559 2.5345 1.55518 6.15542L5.19486 8.91731C6.06254 6.37726 8.489 4.49233 11.3478 4.49233Z" fill="#EA4335"/>
</svg>
