<svg width="65" height="40" viewBox="0 0 65 40" fill="none" xmlns="http://www.w3.org/2000/svg">
<path d="M40.8471 35.1357H23.4546V4.20801H40.8471V35.1357Z" fill="#6C6BBD"/>
<path d="M24.5691 19.6693C24.5691 13.3955 27.5378 7.80696 32.1609 4.20548C28.7802 1.57191 24.5134 1.25435e-05 19.8764 1.25435e-05C8.8987 1.25435e-05 0 8.80612 0 19.6693C0 30.5325 8.8987 39.3386 19.8764 39.3386C24.5134 39.3386 28.7802 37.7667 32.1609 35.1332C27.5378 31.5317 24.5691 25.9431 24.5691 19.6693" fill="#EB001B"/>
<path d="M64.3038 19.6693C64.3038 30.5325 55.4051 39.3386 44.4274 39.3386C39.7904 39.3386 35.5236 37.7667 32.1416 35.1332C36.766 31.5317 39.7348 25.9431 39.7348 19.6693C39.7348 13.3955 36.766 7.80696 32.1416 4.20548C35.5236 1.57191 39.7904 1.25435e-05 44.4274 1.25435e-05C55.4051 1.25435e-05 64.3038 8.80612 64.3038 19.6693" fill="#0099DF"/>
</svg>
