<svg width="64" height="40" viewBox="0 0 64 40" fill="none" xmlns="http://www.w3.org/2000/svg">
<path d="M40.5291 35.5356H23.354V4.60791H40.5291V35.5356Z" fill="#FF5F00"/>
<path d="M24.4543 20.0692C24.4543 13.7954 27.386 8.20686 31.9513 4.60538C28.6128 1.97181 24.3994 0.399914 19.8204 0.399914C8.97985 0.399914 0.192383 9.20602 0.192383 20.0692C0.192383 30.9324 8.97985 39.7385 19.8204 39.7385C24.3994 39.7385 28.6128 38.1666 31.9513 35.5331C27.386 31.9316 24.4543 26.343 24.4543 20.0692Z" fill="#EB001B"/>
<path d="M63.6933 20.0692C63.6933 30.9324 54.9058 39.7385 44.0653 39.7385C39.4863 39.7385 35.2729 38.1666 31.9331 35.5331C36.4997 31.9316 39.4313 26.343 39.4313 20.0692C39.4313 13.7954 36.4997 8.20686 31.9331 4.60538C35.2729 1.97181 39.4863 0.399914 44.0653 0.399914C54.9058 0.399914 63.6933 9.20602 63.6933 20.0692Z" fill="#F79E1B"/>
</svg>
