<svg width="81" height="25" viewBox="0 0 81 25" fill="none" xmlns="http://www.w3.org/2000/svg">
<path d="M35.415 23.9507H28.9268L32.985 0.499512H39.4729L35.415 23.9507Z" fill="#15195A"/>
<path d="M58.9352 1.07287C57.6554 0.598371 55.6256 0.0744629 53.1157 0.0744629C46.7084 0.0744629 42.1963 3.26765 42.1687 7.83294C42.1154 11.2012 45.3991 13.072 47.8551 14.1951C50.3653 15.3427 51.2186 16.0918 51.2186 17.1147C51.193 18.6858 49.1902 19.41 47.3222 19.41C44.7318 19.41 43.3438 19.0366 41.2345 18.1625L40.3801 17.7879L39.4722 23.0521C40.9939 23.7001 43.7976 24.275 46.7084 24.3002C53.5163 24.3002 57.9485 21.1565 58.001 16.2914C58.0269 13.6218 56.293 11.5762 52.5548 9.9047C50.2855 8.83168 48.8957 8.10816 48.8957 7.01027C48.9223 6.0122 50.0712 4.98991 52.6328 4.98991C54.7421 4.93984 56.2919 5.41368 57.4659 5.88785L58.0528 6.13687L58.9352 1.07287Z" fill="#15195A"/>
<path fill-rule="evenodd" clip-rule="evenodd" d="M70.5492 0.499512H75.5679L80.8022 23.9504H74.7947C74.7947 23.9504 74.2068 21.2559 74.0206 20.4325H65.6902C65.4493 21.0559 64.3284 23.9504 64.3284 23.9504H57.5205L67.158 2.44527C67.8257 0.92328 69.0015 0.499512 70.5492 0.499512ZM70.1493 9.08136C70.1493 9.08136 68.0932 14.2956 67.5589 15.6428H72.9519C72.6851 14.4703 71.4564 8.85688 71.4564 8.85688L71.003 6.83618C70.812 7.35652 70.5359 8.07191 70.3496 8.55442C70.2234 8.88151 70.1384 9.10159 70.1493 9.08136Z" fill="#15195A"/>
<path fill-rule="evenodd" clip-rule="evenodd" d="M17.1531 16.491L23.5073 0.499512H30.3681L20.1697 23.9258H13.3085L7.52551 3.5488C5.53022 2.45862 3.25305 1.58182 0.707031 0.973359L0.813827 0.49952H11.2528C12.6678 0.548927 13.8159 0.973027 14.1895 2.47081L16.4582 13.246C16.4584 13.2466 16.4586 13.2471 16.4588 13.2477L17.1531 16.491Z" fill="#15195A"/>
</svg>
